<?xml version="1.0" encoding="iso-8859-1"?>
<svg height="800px" width="800px" version="1.1" id="Layer_1" xmlns="http://www.w3.org/2000/svg" xmlns:xlink="http://www.w3.org/1999/xlink"
	 viewBox="0 0 512.104 512.104" xml:space="preserve">
<g transform="translate(1 1)">
	<path style="fill:#7383BF;" d="M502.172,255.052c0,136.828-110.345,247.172-247.172,247.172S7.828,391.88,7.828,255.052
		S118.172,7.88,255,7.88S502.172,118.225,502.172,255.052"/>
	<g>
		<path style="fill:#434C6D;" d="M255,511.052c-141.241,0-256-114.759-256-256s114.759-256,256-256s256,114.759,256,256
			S396.241,511.052,255,511.052z M255,16.707c-131.531,0-238.345,106.814-238.345,238.345S123.469,493.397,255,493.397
			s238.345-106.814,238.345-238.345S386.531,16.707,255,16.707z"/>
		<path style="fill:#434C6D;" d="M255,511.052c-5.297,0-8.828-3.531-8.828-8.828V7.88c0-5.297,3.531-8.828,8.828-8.828
			c5.297,0,8.828,3.531,8.828,8.828v494.345C263.828,507.521,260.297,511.052,255,511.052z"/>
		<path style="fill:#434C6D;" d="M255,511.052c-0.883,0-2.648,0-3.531,0h-5.297l-2.648-1.766
			c-76.8-62.676-120.938-155.366-120.938-254.234S166.724,63.494,243.524,0.818l2.648-1.766h5.297c0.883,0,2.648,0,3.531,0
			c5.297,0,8.828,3.531,8.828,8.828s-3.531,8.828-8.828,8.828c-0.883,0-1.766,0-2.648,0
			c-71.503,59.145-112.11,145.655-112.11,238.345s40.607,179.2,112.11,238.345c0.883,0,1.766,0,2.648,0
			c5.297,0,8.828,3.531,8.828,8.828S260.297,511.052,255,511.052z"/>
		<path style="fill:#434C6D;" d="M255,149.121c-66.207,0-129.766-19.421-184.497-56.497c-3.531-3.531-4.414-8.828-1.766-12.359
			c2.648-4.414,7.945-5.297,12.359-2.648c51.2,35.31,112.11,53.848,173.903,53.848c62.676,0,122.703-18.538,173.903-53.848
			c4.414-2.648,9.71-1.766,12.359,2.648c2.648,4.414,1.766,9.71-2.648,12.359C384.766,129.701,321.207,149.121,255,149.121z"/>
		<path style="fill:#434C6D;" d="M70.503,428.956c-2.648,0-5.297-0.883-7.062-3.531c-2.648-3.531-1.766-9.71,1.766-12.359
			c56.497-39.724,121.821-60.91,189.793-60.91s133.297,21.186,188.91,60.91c4.414,2.648,5.297,7.945,1.766,12.359
			c-2.648,4.414-7.945,5.297-12.359,1.766c-52.966-37.076-114.759-57.379-179.2-57.379s-126.234,19.421-179.2,57.379
			C74.034,428.073,72.269,428.956,70.503,428.956z"/>
		<path style="fill:#434C6D;" d="M255,511.052c-5.297,0-8.828-3.531-8.828-8.828s3.531-8.828,8.828-8.828c0.883,0,1.766,0,2.648,0
			c71.503-59.145,112.11-145.655,112.11-238.345s-40.607-179.2-112.11-238.345c-0.883,0-1.766,0-2.648,0
			c-5.297,0-8.828-3.531-8.828-8.828s3.531-8.828,8.828-8.828c0.883,0,2.648,0,3.531,0h5.297l2.648,1.766
			c76.8,62.676,120.938,155.366,120.938,254.234s-44.138,191.559-120.938,254.234l-2.648,1.766h-5.297
			C257.648,511.052,255.883,511.052,255,511.052z"/>
		<path style="fill:#434C6D;" d="M502.172,263.88H7.828c-5.297,0-8.828-3.531-8.828-8.828c0-5.297,3.531-8.828,8.828-8.828h494.345
			c5.297,0,8.828,3.531,8.828,8.828C511,260.349,507.469,263.88,502.172,263.88z"/>
	</g>
	<path style="fill:#42B05C;" d="M422.724,263.88l-70.621-99.752c-26.483-34.428-22.952-91.807,7.945-121.821l0,0
		c34.428-34.428,90.924-34.428,125.352,0l0,0c30.897,30.014,34.428,87.393,7.945,121.821L422.724,263.88z"/>
	<path style="fill:#E8EC18;" d="M458.034,104.983c0,19.421-15.89,35.31-35.31,35.31c-19.421,0-35.31-15.89-35.31-35.31
		s15.89-35.31,35.31-35.31C442.145,69.673,458.034,85.563,458.034,104.983"/>
	<path style="fill:#ECBA16;" d="M422.724,149.121c-24.717,0-44.138-19.421-44.138-44.138s19.421-44.138,44.138-44.138
		c24.717,0,44.138,19.421,44.138,44.138S447.441,149.121,422.724,149.121z M422.724,78.501c-15.007,0-26.483,11.476-26.483,26.483
		s11.476,26.483,26.483,26.483c15.007,0,26.483-11.476,26.483-26.483S437.731,78.501,422.724,78.501z"/>
</g>
</svg>